# xmcd CD database file
#
# Track frame offsets:
#	150
#	13563
#	25825
#	38713
#	51438
#	66175
#	80675
#	94525
#	106838
#	118245
#	131500
#	142350
#	155050
#	169363
#	182688
#	193925
#	207538
#	220125
#	241633
#	253808
#	264413
#
# Disc length: 3679 seconds
#
# Revision: 0
# Processed by: cddbd v1.5.2PL0 Copyright (c) Steve Scherf et al.
# Submitted via: CDex 1.70beta2
#
DISCID=3a0e5d15
DTITLE=DIZZY GILLESPIE - THE COMPLETE LEADER RECORDINGS OF DIZZY GILLESPIE ON SAVOY
DYEAR=1993
DGENRE=Jazz
TTITLE0=BLUE'N' BOOGIE
TTITLE1=GROOVIN' HIGH
TTITLE2=ALL THE THINGS YOU ARE
TTITLE3=DIZZY ATOMOSPHERE
TTITLE4=SALT PEANUTS
TTITLE5=HOT HOUSE
TTITLE6=OOP BOP SH' BAM
TTITLE7=THAT'S EARL BROTHER
TTITLE8=OUR BRIGHT
TTITLE9=ONE BASS HIT PART II
TTITLE10=RAY'S IDEA
TTITLE11=THINGS TO COME
TTITLE12=EMANON
TTITLE13=SWING LOW SWEET CHARIOT
TTITLE14=LULLABY OF THE LEAVES
TTITLE15=I FOUND A MILLION DALLOR BABY
TTITLE16=WHAT IS THERE TO SAY
TTITLE17=ALONE TOGETHER
TTITLE18=THERE ARE THE THINGS I LOVE
TTITLE19=ON THE ALAMO
TTITLE20=INTERLUDE IN C
EXTD=YEAR: 1993
EXTT0=
EXTT1=
EXTT2=
EXTT3=
EXTT4=
EXTT5=
EXTT6=
EXTT7=
EXTT8=
EXTT9=
EXTT10=
EXTT11=
EXTT12=
EXTT13=
EXTT14=
EXTT15=
EXTT16=
EXTT17=
EXTT18=
EXTT19=
EXTT20=
PLAYORDER=
